<svg width="48" height="48" viewBox="0 0 48 48" fill="none" xmlns="http://www.w3.org/2000/svg">
<path d="M32.7002 19.2456L32.8002 19.4437L32.7002 19.2456Z" fill="#CDAF9B"/>
<path d="M30.4002 15.6794C29.7002 14.5897 28.2002 14.2926 27.1002 14.986C26.0002 15.6794 25.7002 16.769 26.4002 17.8586L30.8002 24.5945C30.9002 24.6935 30.9002 24.9907 30.7002 25.0897H30.6002C30.5002 25.0897 30.4002 25.0897 30.3002 24.9907L30.0002 24.5945C28.3002 22.4152 26.2002 20.6322 24.3002 18.6511C22.3002 16.6699 20.4002 14.7879 18.4002 12.8067C18.1002 12.5096 17.8002 12.2124 17.5002 11.9152C16.6002 11.0237 15.2002 11.0237 14.3002 11.9152C13.4002 12.8067 13.4002 14.1935 14.3002 15.085L23.6002 24.2973C23.7002 24.3963 23.6002 24.5945 23.5002 24.6935C23.3002 24.8916 23.1002 24.8916 22.9002 24.6935L12.2002 14.0945C11.3002 13.2029 9.9002 13.2029 9.0002 14.0945C8.1002 14.986 8.1002 16.3728 9.0002 17.2643L19.7002 27.8633C19.9002 28.0614 19.9002 28.2596 19.7002 28.4577C19.5002 28.6558 19.3002 28.6558 19.1002 28.4577L9.7002 19.1463C8.8002 18.2548 7.4002 18.2548 6.5002 19.1463C5.6002 20.0379 5.6002 21.4246 6.5002 22.3162L15.9002 31.6275C16.1002 31.8256 16.1002 32.0237 15.9002 32.2218C15.7002 32.4199 15.5002 32.4199 15.3002 32.2218L9.7002 26.6746C8.8002 25.7831 7.4002 25.7831 6.5002 26.6746C5.6002 27.5662 5.6002 28.9529 6.5002 29.8445L13.3002 36.5803L14.2002 37.4718L17.9002 41.1369C22.6002 45.7926 30.2002 45.7926 34.9002 41.1369L36.1002 39.9482C40.8002 35.2926 37.7002 27.1699 35.4002 24.1982L30.4002 15.6794Z" fill="#EBAB2D"/>
<path d="M35 16.8682L35.1 17.0663L35 16.8682Z" fill="#EFCDB3"/>
<path d="M32.7 13.3019C32 12.2123 30.5 11.9151 29.4 12.6085C28.3 13.3019 28 14.3915 28.7 15.4812L33.1 22.217C33.2 22.3161 33.2 22.6132 33 22.7123H32.9C32.8 22.7123 32.7 22.7123 32.6 22.6132L32.3 22.217C30.6 20.0378 28.5 18.2548 26.6 16.2736C24.6 14.2925 22.7 12.4104 20.7 10.4293C20.4 10.1321 20.1 9.83494 19.8 9.53777C18.9 8.64626 17.5 8.64626 16.6 9.53777C15.7 10.4293 15.7 11.8161 16.6 12.7076L25.9 21.9198C26 22.0189 25.9 22.217 25.8 22.3161C25.6 22.5142 25.4 22.5142 25.2 22.3161L14.5 11.8161C13.6 10.9246 12.2 10.9246 11.3 11.8161C10.4 12.7076 10.4 14.0944 11.3 14.9859L22 25.5849C22.2 25.7831 22.2 25.9812 22 26.1793C21.8 26.3774 21.6 26.3774 21.4 26.1793L12 16.868C11.1 15.9765 9.7 15.9765 8.8 16.868C7.9 17.7595 7.9 19.1463 8.8 20.0378L18.2 29.3491C18.4 29.5472 18.4 29.7453 18.2 29.9434C18 30.1415 17.8 30.1415 17.6 29.9434L12 24.3963C11.1 23.5048 9.7 23.5048 8.8 24.3963C7.9 25.2878 7.9 26.6746 8.8 27.5661L15.6 34.3019L16.5 35.1934L20.2 38.8585C24.9 43.5142 32.5 43.5142 37.2 38.8585L38.4 37.6698C43.1 33.0142 40 24.8915 37.7 21.9198L32.7 13.3019Z" fill="#FFD27A"/>
<path d="M30.5997 3.45876L26.9366 8.3386L26.5576 2.20752L30.5997 3.45876Z" fill="#30B66E"/>
<path d="M21.389 3.19824L23.0311 9.07908L17.9785 5.70073L21.389 3.19824Z" fill="#30B66E"/>
<path d="M34.4101 7.16064L28.9785 10.1636L35.0417 11.4149L34.4101 7.16064Z" fill="#30B66E"/>
</svg>
