<svg width="32" height="32" viewBox="0 0 32 32" fill="none" xmlns="http://www.w3.org/2000/svg">
<g clip-path="url(#clip0_239_1660)">
<path d="M25.6666 16C25.6666 21.3388 21.3387 25.6667 16 25.6667C10.6612 25.6667 6.33331 21.3388 6.33331 16C6.33331 10.6613 10.6612 6.33334 16 6.33334C21.3387 6.33334 25.6666 10.6613 25.6666 16Z" stroke="#1A211D" stroke-width="2"/>
<path d="M5.33335 9.6C4.13335 8.53334 4.13335 6.53334 5.33335 5.46667C6.53335 4.4 8.40002 4.26667 9.60002 5.46667L5.33335 9.6Z" fill="#1A211D"/>
<path d="M26.6667 9.59999C27.8667 8.39999 27.8667 6.53332 26.6667 5.33332C25.4667 4.13332 23.6 4.13332 22.4 5.33332L26.6667 9.59999Z" fill="#1A211D"/>
<path d="M8.8 23.2L6.26666 25.7333" stroke="#1A211D" stroke-width="2" stroke-miterlimit="10" stroke-linecap="round" stroke-linejoin="round"/>
<path d="M23.3333 23.2L25.7333 25.7333" stroke="#1A211D" stroke-width="2" stroke-miterlimit="10" stroke-linecap="round" stroke-linejoin="round"/>
<path d="M16 10V16.2222L19.5 19.7223" stroke="#1A211D" stroke-width="2" stroke-linecap="round" stroke-linejoin="round"/>
</g>
<defs>
<clipPath id="clip0_239_1660">
<rect width="32" height="32" fill="white"/>
</clipPath>
</defs>
</svg>
