<svg width="16" height="16" viewBox="0 0 16 16" fill="none" xmlns="http://www.w3.org/2000/svg">
<circle cx="8" cy="8" r="7.5" fill="#30B66E" stroke="white"/>
<path fill-rule="evenodd" clip-rule="evenodd" d="M8.66417 7.07065L9.74376 8.71574C9.88611 8.89368 10.1352 8.92927 10.3132 8.75133L11.2737 7.59066C11.1698 7.43298 11.1094 7.24416 11.1094 7.04122C11.1094 6.48893 11.5571 6.04122 12.1094 6.04122C12.6617 6.04122 13.1094 6.48893 13.1094 7.04122C13.1094 7.40432 12.9159 7.72222 12.6263 7.89741V10.3528C12.6263 10.5663 12.484 10.7086 12.2704 10.7086H11.5587H7.99999H4.44127H3.72952C3.516 10.7086 3.37365 10.5663 3.37365 10.3528V7.89739C3.08414 7.7222 2.89062 7.40431 2.89062 7.04122C2.89062 6.48893 3.33834 6.04122 3.89062 6.04122C4.44291 6.04122 4.89062 6.48893 4.89062 7.04122C4.89062 7.24417 4.83017 7.433 4.72628 7.59068L5.68682 8.75133C5.82917 8.92927 6.07828 8.89368 6.22063 8.71574L7.29847 7.03326L6.64518 6.37997C6.45163 6.18642 6.45163 5.8961 6.64518 5.70255L7.66131 4.68642C7.85485 4.49287 8.14518 4.49287 8.33873 4.68642L9.35485 5.70255C9.5484 5.8961 9.5484 6.18642 9.35485 6.37997L8.66417 7.07065Z" fill="white"/>
</svg>
