<svg width="24" height="24" viewBox="0 0 24 24" fill="none" xmlns="http://www.w3.org/2000/svg">
<path d="M18.3009 15.2954L18.2939 15.3034L18.2872 15.3115L12.3557 22.4878C12.3557 22.4878 12.3557 22.4878 12.3557 22.4878C12.1628 22.7211 11.8051 22.7206 11.6128 22.4868L5.71403 15.3131L5.70679 15.3043L5.69924 15.2958C4.39133 13.8143 3.59861 11.8689 3.59861 9.73723C3.59861 5.09724 7.36006 1.33579 12 1.33579C16.64 1.33579 20.4015 5.09724 20.4015 9.73723C20.4015 11.8688 19.6088 13.814 18.3009 15.2954ZM12 13.2158C13.9212 13.2158 15.4786 11.6584 15.4786 9.73723C15.4786 7.81607 13.9212 6.25866 12 6.25866C10.0789 6.25866 8.52147 7.81607 8.52147 9.73723C8.52147 11.6584 10.0789 13.2158 12 13.2158Z" stroke="#1A211D" stroke-width="1.3"/>
</svg>
