<svg width="200" height="200" viewBox="0 0 200 200" fill="none" xmlns="http://www.w3.org/2000/svg">
<path fill-rule="evenodd" clip-rule="evenodd" d="M170 88C170 110.091 152.091 128 130 128C107.909 128 90 110.091 90 88C90 65.9086 107.909 48 130 48C152.091 48 170 65.9086 170 88ZM190 88C190 106.323 181.787 122.728 168.841 133.733L130 172V148C119.067 148 108.818 145.076 99.9901 139.967C97.5422 141.38 94.9981 142.618 92.3769 143.671C88.2464 145.331 83.9245 146.535 79.4869 147.245C68.2897 149.038 56.8136 147.621 46.3887 143.159C35.9638 138.696 27.0169 131.371 20.585 122.032C14.1531 112.692 10.4995 101.722 10.0477 90.3907C9.59582 79.0599 12.3642 67.833 18.0321 58.0111C23.6999 48.1893 32.0351 40.1748 42.0715 34.8964C52.108 29.6179 63.4348 27.2918 74.7393 28.1875C79.2194 28.5425 83.6233 29.3977 87.8729 30.7239C92.0892 32.0396 96.1537 33.8188 99.99 36.0327C108.817 30.924 119.067 28 130 28C163.137 28 190 54.8629 190 88ZM82.6723 51.1162C79.5866 50.0561 76.3651 49.3821 73.0805 49.1219C65.7326 48.5397 58.3702 50.0517 51.8465 53.4826C45.3228 56.9136 39.9049 62.1231 36.2209 68.5073C32.5368 74.8914 30.7373 82.1889 31.031 89.554C31.3247 96.919 33.6995 104.05 37.8803 110.121C42.061 116.191 47.8765 120.953 54.6527 123.853C61.4288 126.754 68.8883 127.675 76.1665 126.509C78.3872 126.154 80.5632 125.608 82.6723 124.884C74.7314 114.709 70 101.907 70 88C70 74.093 74.7314 61.2912 82.6723 51.1162ZM130 102C137.732 102 144 95.732 144 88C144 80.268 137.732 74 130 74C122.268 74 116 80.268 116 88C116 95.732 122.268 102 130 102Z" fill="#258D55"/>
</svg>
