<svg width="24" height="24" viewBox="0 0 24 24" fill="none" xmlns="http://www.w3.org/2000/svg">
<path d="M12 21.3438C17.1604 21.3438 21.3438 17.1604 21.3438 12C21.3438 6.83959 17.1604 2.65625 12 2.65625C6.83959 2.65625 2.65625 6.83959 2.65625 12C2.65625 17.1604 6.83959 21.3438 12 21.3438Z" stroke="#1A211D" stroke-width="1.3" stroke-linecap="round" stroke-linejoin="round"/>
<path d="M12 3.27911V6.70516" stroke="#1A211D" stroke-width="1.3" stroke-linecap="round" stroke-linejoin="round"/>
<path d="M12 17.2947V20.7208" stroke="#1A211D" stroke-width="1.3" stroke-linecap="round" stroke-linejoin="round"/>
<path d="M20.7208 12H17.2948" stroke="#1A211D" stroke-width="1.3" stroke-linecap="round" stroke-linejoin="round"/>
<path d="M6.70522 12H3.27917" stroke="#1A211D" stroke-width="1.3" stroke-linecap="round" stroke-linejoin="round"/>
<path d="M12.0001 13.2458C12.6882 13.2458 13.2459 12.688 13.2459 12C13.2459 11.3119 12.6882 10.7542 12.0001 10.7542C11.3121 10.7542 10.7543 11.3119 10.7543 12C10.7543 12.688 11.3121 13.2458 12.0001 13.2458Z" fill="#1A211D"/>
</svg>
