<svg width="56" height="56" viewBox="0 0 56 56" fill="none" xmlns="http://www.w3.org/2000/svg">
<ellipse cx="28.1095" cy="49.5813" rx="8.50694" ry="3.76032" fill="#AEB4B0"/>
<path fill-rule="evenodd" clip-rule="evenodd" d="M47.2501 21.9084C47.2501 26.7912 45.4326 31.2504 42.4366 34.6441L29.822 47.9062C28.858 49.0723 27.0697 49.07 26.1087 47.9014L13.5636 34.6448C10.5674 31.2511 8.75 26.7913 8.75 21.9084C8.75 11.2769 17.3685 2.65833 28 2.65833C38.6315 2.65833 47.2501 11.2769 47.2501 21.9084ZM28 27.924C31.3224 27.924 34.0157 25.2307 34.0157 21.9084C34.0157 18.586 31.3224 15.8927 28 15.8927C24.6777 15.8927 21.9844 18.586 21.9844 21.9084C21.9844 25.2307 24.6777 27.924 28 27.924Z" fill="#30B66E"/>
</svg>
