<svg width="16" height="16" viewBox="0 0 16 16" fill="none" xmlns="http://www.w3.org/2000/svg">
<path d="M13.3811 8.30959C13.3811 11.2814 10.972 13.6906 8.00012 13.6906C5.02829 13.6906 2.61914 11.2814 2.61914 8.30959C2.61914 5.33775 5.02829 2.9286 8.00012 2.9286C10.972 2.9286 13.3811 5.33775 13.3811 8.30959Z" stroke="#59625C"/>
<path d="M2.03917 4.90474C1.32028 4.24231 1.32028 3.00025 2.03917 2.33782C2.75807 1.67539 3.87636 1.59258 4.59525 2.33782L2.03917 4.90474Z" fill="#59625C"/>
<path d="M13.9609 4.90474C14.6798 4.18584 14.6798 3.06756 13.9609 2.34866C13.242 1.62976 12.1237 1.62976 11.4048 2.34866L13.9609 4.90474Z" fill="#59625C"/>
<path d="M3.97626 12.3334L2.73816 13.5715" stroke="#59625C" stroke-miterlimit="10" stroke-linecap="round" stroke-linejoin="round"/>
<path d="M12.0239 12.3334L13.262 13.5715" stroke="#59625C" stroke-miterlimit="10" stroke-linecap="round" stroke-linejoin="round"/>
<path d="M7.99995 5.07055L7.99995 8.2719L9.25049 10.0727" stroke="#59625C" stroke-linecap="round" stroke-linejoin="round"/>
</svg>
