<svg width="48" height="52" viewBox="0 0 48 52" fill="none" xmlns="http://www.w3.org/2000/svg">
<g filter="url(#filter0_d_1047_7168)">
<path d="M34.6999 16.0757H30.3999C29.7999 16.0757 29.3999 15.6795 29.3999 15.0852V10.9248L34.6999 16.0757Z" fill="#E0E0E0"/>
<path d="M37 43.5144H12C10.3 43.5144 9 42.2266 9 40.5427V10.0332C9 8.34926 10.3 7.06152 12 7.06152H37C38.7 7.06152 40 8.34926 40 10.0332V40.5427C40 42.1276 38.7 43.5144 37 43.5144Z" fill="#80BAFF"/>
<path d="M36.225 16.0757V38.5615C36.225 39.1559 35.8405 39.5521 35.2639 39.5521H13.736C13.1593 39.5521 12.7749 39.1559 12.7749 38.5615V11.8162C12.7749 11.2219 13.1593 10.8257 13.736 10.8257H31.1072L36.225 16.0757Z" fill="white"/>
<path d="M29.5999 7.06152H19.3999V10.8257H29.5999V7.06152Z" fill="#FFC04A"/>
<path d="M21.2998 7.35878C21.2998 5.57576 22.6998 4.18896 24.4998 4.18896C26.2998 4.18896 27.6998 5.57576 27.6998 7.35878H21.2998Z" fill="#FFC04A"/>
<path d="M16.125 16.5708H22.625" stroke="#E0E0E0" stroke-width="2" stroke-miterlimit="10" stroke-linecap="round" stroke-linejoin="round"/>
<path d="M16 22.019H33" stroke="#E0E0E0" stroke-width="2" stroke-miterlimit="10" stroke-linecap="round" stroke-linejoin="round"/>
<path d="M16 27.9624H33" stroke="#E0E0E0" stroke-width="2" stroke-miterlimit="10" stroke-linecap="round" stroke-linejoin="round"/>
<path d="M16.125 34.0049H25.025" stroke="#E0E0E0" stroke-width="2" stroke-miterlimit="10" stroke-linecap="round" stroke-linejoin="round"/>
<path d="M36.2251 16.0757H32.3807C31.708 16.0757 31.1313 15.4814 31.1313 14.788V10.8257L36.2251 16.0757Z" fill="#E0E0E0"/>
</g>
<defs>
<filter id="filter0_d_1047_7168" x="-4" y="0.226562" width="56" height="55.5474" filterUnits="userSpaceOnUse" color-interpolation-filters="sRGB">
<feFlood flood-opacity="0" result="BackgroundImageFix"/>
<feColorMatrix in="SourceAlpha" type="matrix" values="0 0 0 0 0 0 0 0 0 0 0 0 0 0 0 0 0 0 127 0" result="hardAlpha"/>
<feOffset dy="4"/>
<feGaussianBlur stdDeviation="2"/>
<feComposite in2="hardAlpha" operator="out"/>
<feColorMatrix type="matrix" values="0 0 0 0 0 0 0 0 0 0 0 0 0 0 0 0 0 0 0.25 0"/>
<feBlend mode="normal" in2="BackgroundImageFix" result="effect1_dropShadow_1047_7168"/>
<feBlend mode="normal" in="SourceGraphic" in2="effect1_dropShadow_1047_7168" result="shape"/>
</filter>
</defs>
</svg>
