<svg width="48" height="48" viewBox="0 0 48 48" fill="none" xmlns="http://www.w3.org/2000/svg">
<ellipse cx="24" cy="26.9719" rx="14" ry="13.8679" fill="white"/>
<path d="M23.7021 11.897V40.4869C31.6833 40.4869 38.1796 34.0518 38.1796 26.1459C38.1796 18.2401 31.6833 11.897 23.7021 11.897Z" fill="#ECEDED"/>
<path d="M24.0103 24.9771L17.8057 30.611" stroke="#FA4343" stroke-linecap="round"/>
<path d="M23.702 26.012H30.3839C30.6735 26.012 30.9188 25.9161 31.0919 25.7447C31.265 25.5732 31.3619 25.33 31.3619 25.0427C31.3619 24.7554 31.265 24.5122 31.0919 24.3407C30.9188 24.1692 30.6735 24.0734 30.3839 24.0734H24.68V18.3319C24.68 18.0446 24.5831 17.8014 24.41 17.6299C24.2369 17.4584 23.9916 17.3626 23.702 17.3626C23.4123 17.3626 23.167 17.4584 22.994 17.6299C22.8208 17.8014 22.7239 18.0446 22.7239 18.3319V25.0427C22.7239 25.33 22.8208 25.5732 22.994 25.7447C23.167 25.9161 23.4123 26.012 23.702 26.012Z" fill="#1A211D" stroke="#1A211D" stroke-width="0.1"/>
<path d="M7.90307 15.9417C7.53186 16.3094 6.97503 16.3094 6.69662 15.9417C4.93333 13.8273 4.93333 10.6098 6.88223 8.49541C8.83112 6.38105 11.9865 6.01333 14.3066 7.48419C14.7706 7.75998 14.7706 8.31155 14.4922 8.67927L7.90307 15.9417Z" fill="#30B66E"/>
<path d="M39.4935 15.9417C39.8647 16.3094 40.4215 16.3094 40.6999 15.9417C42.4632 13.8273 42.4632 10.6098 40.5143 8.49541C38.6582 6.38105 35.5029 6.01333 33.09 7.48419C32.6259 7.75998 32.6259 8.31155 32.9044 8.67927L39.4935 15.9417Z" fill="#30B66E"/>
<path d="M10.7095 40.8542C10.5239 40.8542 10.3383 40.7622 10.1527 40.6703C9.78145 40.3945 9.68864 39.751 9.96706 39.3833L12.844 35.6142C13.1224 35.2465 13.772 35.1546 14.1433 35.4304C14.5145 35.7062 14.6073 36.3497 14.3289 36.7174L11.4519 40.4865C11.2663 40.7622 10.9879 40.8542 10.7095 40.8542Z" fill="#30B66E"/>
<path d="M36.6019 40.8541C36.3234 40.8541 36.045 40.7621 35.8594 40.4864L32.9825 36.8092C32.7041 36.4415 32.7041 35.798 33.1681 35.5222C33.5393 35.2464 34.1889 35.2464 34.4674 35.7061L37.3443 39.4751C37.6227 39.8429 37.6227 40.4864 37.1587 40.7621C36.9731 40.8541 36.7875 40.8541 36.6019 40.8541Z" fill="#30B66E"/>
<path d="M7.68252 25.1344C7.68252 33.8599 14.897 41.0042 23.7021 41.0042C32.5072 41.0042 39.7216 33.8599 39.7216 25.1344C39.7216 16.4089 32.5072 9.26455 23.7021 9.26455C14.897 9.26455 7.68252 16.4089 7.68252 25.1344ZM10.7667 25.1344C10.7667 18.0481 16.5448 12.3224 23.7021 12.3224C30.8586 12.3224 36.6375 18.1394 36.6375 25.1344C36.6375 32.2207 30.8593 37.9464 23.7021 37.9464C16.5448 37.9464 10.7667 32.2207 10.7667 25.1344Z" fill="#64C74C" stroke="#64C74C" stroke-width="0.3"/>
<path d="M23.7019 14.6547C24.1632 14.6547 24.5372 14.2843 24.5372 13.8274C24.5372 13.3704 24.1632 13 23.7019 13C23.2406 13 22.8667 13.3704 22.8667 13.8274C22.8667 14.2843 23.2406 14.6547 23.7019 14.6547Z" fill="#757575"/>
<path d="M23.7019 37.4531C24.1632 37.4531 24.5372 37.0826 24.5372 36.6257C24.5372 36.1688 24.1632 35.7983 23.7019 35.7983C23.2406 35.7983 22.8667 36.1688 22.8667 36.6257C22.8667 37.0826 23.2406 37.4531 23.7019 37.4531Z" fill="#757575"/>
<path d="M35.2098 25.8701C35.671 25.8701 36.045 25.4996 36.045 25.0427C36.045 24.5858 35.671 24.2153 35.2098 24.2153C34.7485 24.2153 34.3745 24.5858 34.3745 25.0427C34.3745 25.4996 34.7485 25.8701 35.2098 25.8701Z" fill="#757575"/>
<path d="M12.1941 25.8701C12.6554 25.8701 13.0294 25.4996 13.0294 25.0427C13.0294 24.5858 12.6554 24.2153 12.1941 24.2153C11.7328 24.2153 11.3589 24.5858 11.3589 25.0427C11.3589 25.4996 11.7328 25.8701 12.1941 25.8701Z" fill="#757575"/>
</svg>
