<svg width="48" height="48" viewBox="0 0 48 48" fill="none" xmlns="http://www.w3.org/2000/svg">
<path d="M19.4113 16.0813L13.5673 10.2373C14.4143 9.22025 14.3722 7.71225 13.4172 6.75825C12.4062 5.74725 10.7673 5.74725 9.75525 6.75825C9.13425 7.37925 8.89925 8.23625 9.04025 9.04025C8.23625 8.89925 7.37925 9.13425 6.75825 9.75525C5.74725 10.7663 5.74725 12.4062 6.75825 13.4173C7.71225 14.3723 9.22025 14.4132 10.2372 13.5673L16.0813 19.4113L19.4113 16.0813ZM31.3293 28.0002L37.1743 33.8442C38.1912 32.9982 39.6982 33.0392 40.6532 33.9942C41.6652 35.0052 41.6652 36.6442 40.6532 37.6552C40.0322 38.2762 39.1743 38.5112 38.3713 38.3713C38.5132 39.1753 38.2763 40.0322 37.6553 40.6522C36.6443 41.6642 35.0053 41.6642 33.9943 40.6522C33.0393 39.6982 32.9983 38.1902 33.8453 37.1732L28.0003 31.3292L31.3293 28.0002Z" fill="#FFD983"/>
<path d="M35.4152 21.5922C33.7832 19.9592 31.3022 20.0492 29.1812 17.9272C27.0602 15.8062 27.1492 13.3252 25.5162 11.6922C22.0012 8.17724 18.4982 10.2252 14.2032 14.5212C9.90722 18.8172 7.86022 22.3202 11.3742 25.8342C13.0072 27.4672 15.4882 27.3782 17.6092 29.4992C19.7312 31.6202 19.6412 34.1022 21.2742 35.7332C24.7892 39.2482 28.2922 37.2012 32.5882 32.9052C36.8842 28.6092 38.9292 25.1072 35.4152 21.5922Z" fill="#C1694F"/>
<path d="M19.3943 28.7132C19.2903 28.7132 19.1833 28.6962 19.0783 28.6612C18.5543 28.4872 18.2713 27.9212 18.4463 27.3962C19.5553 24.0682 23.7513 19.8732 27.0783 18.7642C27.6063 18.5882 28.1683 18.8722 28.3433 19.3962C28.5183 19.9202 28.2353 20.4862 27.7113 20.6612C25.0253 21.5562 21.2383 25.3432 20.3433 28.0292C20.2033 28.4482 19.8133 28.7132 19.3943 28.7132Z" fill="#662113"/>
</svg>
