<svg width="48" height="48" viewBox="0 0 48 48" fill="none" xmlns="http://www.w3.org/2000/svg">
<path d="M21.373 9.022C19.71 10.686 14.718 17.34 17.214 23.164C19.709 28.987 23.123 25.403 24.7 20.669C25.532 18.173 25.532 14.845 23.869 9.854C23.037 7.358 21.373 9.022 21.373 9.022ZM40.677 28.326C39.014 29.989 32.358 34.981 26.535 32.485C20.711 29.989 24.294 26.576 29.03 24.999C31.527 24.167 34.853 24.166 39.844 25.831C42.34 26.662 40.677 28.326 40.677 28.326Z" fill="#5C913B"/>
<path d="M38.314 14.317C38.314 14.317 38.169 12.59 37.533 12.064C37.098 11.518 35.515 11.518 35.515 11.518C33.851 11.518 14.717 14.014 11.39 30.651C10.795 33.624 16.017 38.892 19.028 38.289C35.667 34.963 38.313 15.98 38.314 14.317Z" fill="#F4900C"/>
<path d="M30.7691 16.816L29.1521 15.199C28.7061 14.753 27.9801 14.753 27.5341 15.199C27.0881 15.646 27.0881 16.37 27.5341 16.816L29.1521 18.434C29.5971 18.88 30.3231 18.88 30.7691 18.434C31.2151 17.988 31.2151 17.264 30.7691 16.816ZM21.0641 18.435C21.5101 18.881 22.2351 18.881 22.6811 18.435C23.1281 17.988 23.1281 17.264 22.6811 16.817L21.9111 16.047C21.2571 16.445 20.6091 16.876 19.9731 17.344L21.0641 18.435ZM23.4901 16.008C23.9371 16.455 24.6601 16.455 25.1071 16.008C25.5531 15.562 25.5531 14.838 25.1071 14.391L25.0821 14.366C24.3711 14.691 23.6511 15.054 22.9331 15.452L23.4901 16.008ZM18.6371 20.861C19.0841 21.307 19.8081 21.307 20.2561 20.861C20.7021 20.414 20.7021 19.69 20.2561 19.243L19.0581 18.047C18.4721 18.521 17.9021 19.032 17.3511 19.575L18.6371 20.861ZM29.9601 12.773C29.5131 13.22 29.5131 13.943 29.9601 14.39L31.5771 16.007C32.0241 16.454 32.7481 16.454 33.1941 16.007C33.6401 15.561 33.6401 14.837 33.1941 14.39L31.5771 12.773C31.1301 12.327 30.4071 12.327 29.9601 12.773ZM32.3681 11.977C32.3741 11.984 32.3761 11.993 32.3831 12L34.0001 13.617C34.4471 14.064 35.1711 14.064 35.6171 13.617C36.0631 13.171 36.0631 12.447 35.6171 12L35.1551 11.538C34.6151 11.582 33.6391 11.71 32.3681 11.977ZM28.3431 20.861C28.7891 20.414 28.7891 19.69 28.3431 19.243L26.7251 17.626C26.2791 17.179 25.5541 17.179 25.1081 17.626C24.6611 18.072 24.6611 18.796 25.1081 19.243L26.7251 20.861C27.1711 21.307 27.8961 21.307 28.3431 20.861ZM25.9151 23.287C26.3621 22.84 26.3621 22.116 25.9151 21.669L24.2981 20.052C23.8521 19.605 23.1281 19.605 22.6811 20.052C22.2351 20.499 22.2351 21.223 22.6811 21.669L24.2981 23.287C24.7451 23.733 25.4701 23.733 25.9151 23.287ZM21.0641 28.139C21.5111 27.692 21.5101 26.969 21.0641 26.521L19.4461 24.904C19.0001 24.458 18.2771 24.457 17.8291 24.904C17.3831 25.351 17.3831 26.075 17.8291 26.521L19.4461 28.139C19.8931 28.585 20.6171 28.585 21.0641 28.139ZM20.2561 22.478C19.8091 22.924 19.8091 23.649 20.2561 24.096L21.8731 25.713C22.3201 26.159 23.0431 26.159 23.4911 25.713C23.9381 25.266 23.9381 24.542 23.4911 24.096L21.8731 22.478C21.4261 22.031 20.7021 22.031 20.2561 22.478Z" fill="#F7B82D"/>
<path d="M33.866 31.574C26.741 29.2 18.769 32.226 14.448 35.15C17.373 30.829 20.398 22.856 18.024 15.732C17.09 12.932 12.422 10.131 9.62204 12.931C8.68804 13.865 7.75504 14.799 9.62204 14.799C11.489 14.799 14.289 17.599 13.357 20.4C12.522 22.905 6.46804 29.142 9.20404 35.775C8.93404 35.89 8.68104 36.054 8.46004 36.274L7.74504 36.988C6.82604 37.907 6.82604 39.397 7.74504 40.317L8.46104 41.033C9.38004 41.953 10.87 41.953 11.789 41.033L12.504 40.317C12.627 40.194 12.731 40.059 12.82 39.919C19.819 43.759 26.567 37.12 29.199 36.242C31.999 35.309 34.799 38.11 34.799 39.976C34.799 41.843 35.733 40.91 36.666 39.976C39.467 37.176 36.665 32.506 33.866 31.574Z" fill="#77B255"/>
</svg>
